<svg xmlns="http://www.w3.org/2000/svg"
     viewBox="0 0 156.6 41.28">
  <defs>
    <clipPath id="a">
      <path
        d="M3.792-24.48a.623.623,0,0,0,.456-.192.623.623,0,0,0,.192-.456h0v-15.5a.623.623,0,0,0-.192-.456.623.623,0,0,0-.456-.192H.648a.623.623,0,0,0-.456.192A.623.623,0,0,0,0-40.632H0v15.5a.623.623,0,0,0,.192.456.623.623,0,0,0,.456.192H3.792Zm7.392,0a.623.623,0,0,0,.456-.192.623.623,0,0,0,.192-.456h0V-31.2a2.6,2.6,0,0,1,.492-1.656A1.88,1.88,0,0,1,13.9-33.48a1.916,1.916,0,0,1,1.584.624,2.556,2.556,0,0,1,.5,1.656h0v6.072a.623.623,0,0,0,.192.456.623.623,0,0,0,.456.192h3.024a.623.623,0,0,0,.456-.192.623.623,0,0,0,.192-.456h0v-6.6a7.022,7.022,0,0,0-.384-2.448,4.59,4.59,0,0,0-1.068-1.7,4.247,4.247,0,0,0-1.644-1A6.571,6.571,0,0,0,15.1-37.2a5.345,5.345,0,0,0-1.26.132,4.52,4.52,0,0,0-.948.336,3.023,3.023,0,0,0-.7.468,4.563,4.563,0,0,0-.48.5h0v-.552a.623.623,0,0,0-.192-.456.623.623,0,0,0-.456-.192H8.16a.623.623,0,0,0-.456.192.623.623,0,0,0-.192.456h0v11.184a.623.623,0,0,0,.192.456.623.623,0,0,0,.456.192h3.024Zm20.376,0a.623.623,0,0,0,.456-.192.623.623,0,0,0,.192-.456h0v-2.424a.623.623,0,0,0-.192-.456.623.623,0,0,0-.456-.192H29.64a.956.956,0,0,1-.792-.3,1.334,1.334,0,0,1-.24-.852h0V-33.24H31.32a.623.623,0,0,0,.456-.192.623.623,0,0,0,.192-.456h0v-2.424a.623.623,0,0,0-.192-.456.623.623,0,0,0-.456-.192H28.608v-3.912a.623.623,0,0,0-.192-.456.623.623,0,0,0-.456-.192H24.936a.623.623,0,0,0-.456.192.623.623,0,0,0-.192.456h0v3.912H22.512a.623.623,0,0,0-.456.192.623.623,0,0,0-.192.456h0v2.424a.623.623,0,0,0,.192.456.623.623,0,0,0,.456.192h1.776v4.032a5.168,5.168,0,0,0,.36,1.98,4.226,4.226,0,0,0,1.008,1.488,4.352,4.352,0,0,0,1.572.936,6.169,6.169,0,0,0,2.052.324h2.28Zm8.592.24a8.041,8.041,0,0,0,2.856-.456,7.11,7.11,0,0,0,1.956-1.068,4.9,4.9,0,0,0,1.116-1.2,1.98,1.98,0,0,0,.36-.876.467.467,0,0,0-.528-.528h-3.12a.989.989,0,0,0-.408.06,2.5,2.5,0,0,0-.384.276,1.984,1.984,0,0,1-.708.408,3.627,3.627,0,0,1-1.14.144,3.478,3.478,0,0,1-.744-.084,1.937,1.937,0,0,1-.7-.3,1.715,1.715,0,0,1-.516-.576,1.832,1.832,0,0,1-.2-.912h7.992a.623.623,0,0,0,.456-.192A.623.623,0,0,0,46.632-30h0v-.672a8.052,8.052,0,0,0-.348-2.316,5.878,5.878,0,0,0-1.128-2.1,5.843,5.843,0,0,0-2.016-1.524,6.91,6.91,0,0,0-2.988-.588,7.322,7.322,0,0,0-2.772.492,5.806,5.806,0,0,0-2.04,1.356A5.643,5.643,0,0,0,34.092-33.3a7.688,7.688,0,0,0-.42,2.58,8.179,8.179,0,0,0,.42,2.712,5.4,5.4,0,0,0,1.248,2.04,5.447,5.447,0,0,0,2.04,1.284A8.029,8.029,0,0,0,40.152-24.24Zm2.16-7.776h-4.32a2.482,2.482,0,0,1,.624-1.344,1.937,1.937,0,0,1,1.536-.6,1.937,1.937,0,0,1,1.536.6,2.482,2.482,0,0,1,.624,1.344ZM52.488-24.48a.623.623,0,0,0,.456-.192.623.623,0,0,0,.192-.456h0v-5.9a1.952,1.952,0,0,1,2.208-2.208h2.184a.623.623,0,0,0,.456-.192.623.623,0,0,0,.192-.456h0v-2.424a.623.623,0,0,0-.192-.456.623.623,0,0,0-.456-.192h-1.44a4.682,4.682,0,0,0-1.86.336,4.452,4.452,0,0,0-1.332.864h0v-.552a.623.623,0,0,0-.192-.456.623.623,0,0,0-.456-.192H49.464a.623.623,0,0,0-.456.192.623.623,0,0,0-.192.456h0v11.184a.623.623,0,0,0,.192.456.623.623,0,0,0,.456.192h3.024Zm11.016,0a.623.623,0,0,0,.456-.192.623.623,0,0,0,.192-.456h0V-31.2a2.6,2.6,0,0,1,.492-1.656,1.88,1.88,0,0,1,1.572-.624,1.916,1.916,0,0,1,1.584.624,2.556,2.556,0,0,1,.5,1.656h0v6.072a.623.623,0,0,0,.192.456.623.623,0,0,0,.456.192h3.024a.623.623,0,0,0,.456-.192.623.623,0,0,0,.192-.456h0v-6.6a7.021,7.021,0,0,0-.384-2.448,4.59,4.59,0,0,0-1.068-1.7,4.247,4.247,0,0,0-1.644-1,6.571,6.571,0,0,0-2.112-.324,5.345,5.345,0,0,0-1.26.132,4.52,4.52,0,0,0-.948.336,3.022,3.022,0,0,0-.7.468,4.564,4.564,0,0,0-.48.5h0v-.552a.623.623,0,0,0-.192-.456.623.623,0,0,0-.456-.192h-2.9a.623.623,0,0,0-.456.192.623.623,0,0,0-.192.456h0v11.184a.623.623,0,0,0,.192.456.623.623,0,0,0,.456.192H63.5Zm15.264.24a5.1,5.1,0,0,0,2.244-.42A4.156,4.156,0,0,0,82.44-25.8h0v.672a.623.623,0,0,0,.192.456.623.623,0,0,0,.456.192h3.024a.623.623,0,0,0,.456-.192.623.623,0,0,0,.192-.456h0V-32.4a5.354,5.354,0,0,0-.336-1.932,3.87,3.87,0,0,0-1.044-1.512,5,5,0,0,0-1.788-1,8.064,8.064,0,0,0-2.544-.36,7.365,7.365,0,0,0-2.268.336,7.217,7.217,0,0,0-1.8.84,4.545,4.545,0,0,0-1.188,1.1,2.347,2.347,0,0,0-.48,1.152.434.434,0,0,0,.132.384.561.561,0,0,0,.4.144h3.048a1.9,1.9,0,0,0,.456-.048,1,1,0,0,0,.408-.24A2.59,2.59,0,0,1,80.2-33.8a1.882,1.882,0,0,1,.852-.156,1.345,1.345,0,0,1,1.08.372,1.425,1.425,0,0,1,.312.948h0l-2.808.48a8.387,8.387,0,0,0-3.948,1.512,3.287,3.287,0,0,0-1.212,2.616,3.916,3.916,0,0,0,.288,1.512,3.4,3.4,0,0,0,.828,1.2,3.836,3.836,0,0,0,1.344.792A5.427,5.427,0,0,0,78.768-24.24Zm1.176-3.24a1.667,1.667,0,0,1-.852-.18.68.68,0,0,1-.3-.636.882.882,0,0,1,.4-.744,2.547,2.547,0,0,1,1.044-.408h0l2.208-.336a2.139,2.139,0,0,1-.192.9,2.286,2.286,0,0,1-.528.732,2.5,2.5,0,0,1-.792.492A2.656,2.656,0,0,1,79.944-27.48Zm18.168,3a.623.623,0,0,0,.456-.192.623.623,0,0,0,.192-.456h0v-2.424a.623.623,0,0,0-.192-.456.623.623,0,0,0-.456-.192h-1.92a.956.956,0,0,1-.792-.3,1.334,1.334,0,0,1-.24-.852h0V-33.24h2.712a.623.623,0,0,0,.456-.192.623.623,0,0,0,.192-.456h0v-2.424a.623.623,0,0,0-.192-.456.623.623,0,0,0-.456-.192H95.16v-3.912a.623.623,0,0,0-.192-.456.623.623,0,0,0-.456-.192H91.488a.623.623,0,0,0-.456.192.623.623,0,0,0-.192.456h0v3.912H89.064a.623.623,0,0,0-.456.192.623.623,0,0,0-.192.456h0v2.424a.623.623,0,0,0,.192.456.623.623,0,0,0,.456.192H90.84v4.032a5.168,5.168,0,0,0,.36,1.98,4.226,4.226,0,0,0,1.008,1.488,4.352,4.352,0,0,0,1.572.936,6.169,6.169,0,0,0,2.052.324h2.28Zm6.36-13.8a.623.623,0,0,0,.456-.192.623.623,0,0,0,.192-.456h0v-2.424a.623.623,0,0,0-.192-.456.623.623,0,0,0-.456-.192h-3.024a.623.623,0,0,0-.456.192.623.623,0,0,0-.192.456h0v2.424a.623.623,0,0,0,.192.456.623.623,0,0,0,.456.192h3.024Zm0,13.8a.623.623,0,0,0,.456-.192.623.623,0,0,0,.192-.456h0V-36.312a.623.623,0,0,0-.192-.456.623.623,0,0,0-.456-.192h-3.024a.623.623,0,0,0-.456.192.623.623,0,0,0-.192.456h0v11.184a.623.623,0,0,0,.192.456.623.623,0,0,0,.456.192h3.024Zm9.432.24a7.716,7.716,0,0,0,2.652-.432,6.116,6.116,0,0,0,2.028-1.188,5.581,5.581,0,0,0,1.32-1.764,5.5,5.5,0,0,0,.528-2.16q.024-.36.024-.924t-.024-.924a5.634,5.634,0,0,0-.516-2.16,5.351,5.351,0,0,0-1.32-1.764,6.426,6.426,0,0,0-2.04-1.2A7.528,7.528,0,0,0,113.9-37.2a7.528,7.528,0,0,0-2.652.444,6.426,6.426,0,0,0-2.04,1.2,5.5,5.5,0,0,0-1.332,1.764,5.218,5.218,0,0,0-.5,2.16q-.024.36-.024.924v.217q0,.419.023.707a5.5,5.5,0,0,0,.528,2.16,5.581,5.581,0,0,0,1.32,1.764,6.116,6.116,0,0,0,2.028,1.188A7.716,7.716,0,0,0,113.9-24.24Zm0-3.72a2.262,2.262,0,0,1-1.548-.516,2.026,2.026,0,0,1-.66-1.428,6.225,6.225,0,0,1-.048-.816,6.225,6.225,0,0,1,.048-.816,2.026,2.026,0,0,1,.66-1.428,2.262,2.262,0,0,1,1.548-.516,2.262,2.262,0,0,1,1.548.516,2.026,2.026,0,0,1,.66,1.428,6.225,6.225,0,0,1,.048.816,6.225,6.225,0,0,1-.048.816,2.026,2.026,0,0,1-.66,1.428A2.262,2.262,0,0,1,113.9-27.96Zm12.456,3.48a.623.623,0,0,0,.456-.192.623.623,0,0,0,.192-.456h0V-31.2a2.6,2.6,0,0,1,.492-1.656,1.88,1.88,0,0,1,1.572-.624,1.916,1.916,0,0,1,1.584.624,2.556,2.556,0,0,1,.5,1.656h0v6.072a.623.623,0,0,0,.192.456.623.623,0,0,0,.456.192h3.024a.623.623,0,0,0,.456-.192.623.623,0,0,0,.192-.456h0v-6.6a7.021,7.021,0,0,0-.384-2.448,4.59,4.59,0,0,0-1.068-1.7,4.247,4.247,0,0,0-1.644-1,6.571,6.571,0,0,0-2.112-.324,5.345,5.345,0,0,0-1.26.132,4.52,4.52,0,0,0-.948.336,3.023,3.023,0,0,0-.7.468,4.563,4.563,0,0,0-.48.5h0v-.552a.623.623,0,0,0-.192-.456.623.623,0,0,0-.456-.192h-2.9a.623.623,0,0,0-.456.192.623.623,0,0,0-.192.456h0v11.184a.623.623,0,0,0,.192.456.623.623,0,0,0,.456.192h3.024Zm15.264.24a5.1,5.1,0,0,0,2.244-.42A4.156,4.156,0,0,0,145.3-25.8h0v.672a.623.623,0,0,0,.192.456.623.623,0,0,0,.456.192h3.024a.623.623,0,0,0,.456-.192.623.623,0,0,0,.192-.456h0V-32.4a5.354,5.354,0,0,0-.336-1.932,3.87,3.87,0,0,0-1.044-1.512,5,5,0,0,0-1.788-1,8.064,8.064,0,0,0-2.544-.36,7.365,7.365,0,0,0-2.268.336,7.217,7.217,0,0,0-1.8.84,4.545,4.545,0,0,0-1.188,1.1,2.346,2.346,0,0,0-.48,1.152.434.434,0,0,0,.132.384.561.561,0,0,0,.4.144h3.048a1.9,1.9,0,0,0,.456-.048,1,1,0,0,0,.408-.24,2.59,2.59,0,0,1,.444-.276,1.882,1.882,0,0,1,.852-.156,1.345,1.345,0,0,1,1.08.372,1.425,1.425,0,0,1,.312.948h0l-2.808.48a8.387,8.387,0,0,0-3.948,1.512,3.287,3.287,0,0,0-1.212,2.616,3.916,3.916,0,0,0,.288,1.512,3.4,3.4,0,0,0,.828,1.2,3.836,3.836,0,0,0,1.344.792A5.427,5.427,0,0,0,141.624-24.24Zm1.176-3.24a1.667,1.667,0,0,1-.852-.18.68.68,0,0,1-.3-.636.882.882,0,0,1,.4-.744,2.547,2.547,0,0,1,1.044-.408h0l2.208-.336a2.139,2.139,0,0,1-.192.9,2.286,2.286,0,0,1-.528.732,2.5,2.5,0,0,1-.792.492A2.656,2.656,0,0,1,142.8-27.48Zm13.152,3a.623.623,0,0,0,.456-.192.623.623,0,0,0,.192-.456h0V-40.872a.623.623,0,0,0-.192-.456.623.623,0,0,0-.456-.192h-3.024a.623.623,0,0,0-.456.192.623.623,0,0,0-.192.456h0v15.744a.623.623,0,0,0,.192.456.623.623,0,0,0,.456.192h3.024Z"
        fill="none"/>
    </clipPath>
    <clipPath id="b">
      <path
        d="M7.416-.96a5.857,5.857,0,0,0,2.292-.42A4.833,4.833,0,0,0,11.364-2.5a4.757,4.757,0,0,0,1-1.56A4.86,4.86,0,0,0,12.7-5.832a4.186,4.186,0,0,0-.684-2.388,6.024,6.024,0,0,0-1.6-1.644q.144-.1.468-.336a3.535,3.535,0,0,0,.648-.648,4,4,0,0,0,.564-1.008,3.73,3.73,0,0,0,.24-1.392,4.732,4.732,0,0,0-.252-1.416,4.129,4.129,0,0,0-.852-1.476,4.774,4.774,0,0,0-1.608-1.152A6.047,6.047,0,0,0,7.08-17.76H.648a.623.623,0,0,0-.456.192A.623.623,0,0,0,0-17.112H0v15.5a.623.623,0,0,0,.192.456A.623.623,0,0,0,.648-.96H7.416ZM6.84-10.752H2.28V-15.6H6.84a3.9,3.9,0,0,1,2.412.624,2.142,2.142,0,0,1,.8,1.8,2.142,2.142,0,0,1-.8,1.8,3.9,3.9,0,0,1-2.412.624ZM7.176-3.12H2.28V-8.592h4.9a4.16,4.16,0,0,1,1.452.228,2.858,2.858,0,0,1,1.008.612,2.429,2.429,0,0,1,.588.888,2.876,2.876,0,0,1,.192,1.032,2.611,2.611,0,0,1-.2,1.032,2.552,2.552,0,0,1-.612.864,2.848,2.848,0,0,1-1.02.6,4.208,4.208,0,0,1-1.4.216ZM19.032-.72A6.429,6.429,0,0,0,20.22-.84a6.341,6.341,0,0,0,1.224-.36,4.535,4.535,0,0,0,1.044-.588,2.2,2.2,0,0,0,.672-.8h0v.984a.623.623,0,0,0,.192.456.623.623,0,0,0,.456.192H24.7a.623.623,0,0,0,.456-.192.623.623,0,0,0,.192-.456h0v-7.32a5.242,5.242,0,0,0-.372-2.04,4.139,4.139,0,0,0-1.032-1.488,4.426,4.426,0,0,0-1.584-.912,6.227,6.227,0,0,0-2-.312,5.543,5.543,0,0,0-1.764.276,5.924,5.924,0,0,0-1.464.708,3.7,3.7,0,0,0-1.008.984,2.318,2.318,0,0,0-.42,1.08.534.534,0,0,0,.18.456.663.663,0,0,0,.468.192h.72a1.182,1.182,0,0,0,.456-.072.789.789,0,0,0,.312-.264,4,4,0,0,1,.924-.912,2.748,2.748,0,0,1,1.6-.384,3.213,3.213,0,0,1,2,.612,2.162,2.162,0,0,1,.8,1.836h0v.312L19.776-8.3a11.677,11.677,0,0,0-1.908.48,5.723,5.723,0,0,0-1.572.816A3.683,3.683,0,0,0,15.24-5.784a3.518,3.518,0,0,0-.384,1.68,3.061,3.061,0,0,0,.3,1.344A3.115,3.115,0,0,0,16-1.692a4.15,4.15,0,0,0,1.32.708A5.325,5.325,0,0,0,19.032-.72Zm.24-2.064a3.254,3.254,0,0,1-1.044-.144,1.936,1.936,0,0,1-.684-.384,1.567,1.567,0,0,1-.384-.5,1.267,1.267,0,0,1-.12-.528,1.563,1.563,0,0,1,.888-1.368,6.826,6.826,0,0,1,2.4-.768h0l2.832-.456v.6a3.639,3.639,0,0,1-.276,1.44,3.16,3.16,0,0,1-.792,1.116,3.724,3.724,0,0,1-1.236.732A4.57,4.57,0,0,1,19.272-2.784ZM30.384-.96a.623.623,0,0,0,.456-.192.623.623,0,0,0,.192-.456h0V-7.944a3.722,3.722,0,0,1,.924-2.76,3.317,3.317,0,0,1,2.436-.912,3.291,3.291,0,0,1,2.472.912,3.815,3.815,0,0,1,.888,2.76h0v6.336a.623.623,0,0,0,.192.456A.623.623,0,0,0,38.4-.96h.888a.623.623,0,0,0,.456-.192.623.623,0,0,0,.192-.456h0V-8.3a6.3,6.3,0,0,0-.384-2.256,4.742,4.742,0,0,0-1.068-1.692,4.687,4.687,0,0,0-1.644-1.056,5.73,5.73,0,0,0-2.088-.372,4.729,4.729,0,0,0-2.364.516,4.458,4.458,0,0,0-1.356,1.116h0v-.744a.623.623,0,0,0-.192-.456.623.623,0,0,0-.456-.192H29.5a.623.623,0,0,0-.456.192.623.623,0,0,0-.192.456h0V-1.608a.623.623,0,0,0,.192.456A.623.623,0,0,0,29.5-.96h.888Zm14.568,0a.623.623,0,0,0,.456-.192.623.623,0,0,0,.192-.456h0V-6.24l5.28,4.872a1.806,1.806,0,0,0,.372.264,1.215,1.215,0,0,0,.612.144h1.128a.555.555,0,0,0,.408-.168.555.555,0,0,0,.168-.408.476.476,0,0,0-.048-.216,1.03,1.03,0,0,0-.192-.24h0l-6.384-5.88,5.784-4.512a.62.62,0,0,0,.228-.252.716.716,0,0,0,.036-.228.555.555,0,0,0-.168-.408.555.555,0,0,0-.408-.168h-1.2a1.036,1.036,0,0,0-.564.144,3.557,3.557,0,0,0-.372.264h0L45.6-9.408v-7.944a.623.623,0,0,0-.192-.456A.623.623,0,0,0,44.952-18h-.888a.623.623,0,0,0-.456.192.623.623,0,0,0-.192.456h0V-1.608a.623.623,0,0,0,.192.456.623.623,0,0,0,.456.192h.888Z"
        fill="none"/>
    </clipPath>
  </defs>
  <g transform="translate(-132 -32)">
    <g transform="translate(132 74)">
      <g clip-path="url(#a)">
        <path d="M-5-47H161.6v27.76H-5Z" fill="#1b51a6"/>
      </g>
      <g clip-path="url(#b)">
        <path d="M-5-23H58.568V4.28H-5Z" fill="#333"/>
      </g>
    </g>
  </g>
</svg>
